
      <svg data-logo="logo" xmlns="http://www.w3.org/2000/svg" viewBox="0 0 254 42">
        <g id="logogram" transform="translate(0, 1) rotate(0) "><path d="M21.3474 0.349945L46.7544 25.7266V39.3499H34.8978V30.624L16.4444 12.1924H12.611V39.3499H0.754395V0.349945H21.3474ZM34.8978 13.8842V0.349945H46.7544V13.8842H34.8978Z" fill="#3B82F6"/></g>
        <g id="logotype" transform="translate(49, 4)"><path fill="#3B82F6" d="M12.04 34L5.03 34L5.03 0.53L12.67 0.53L23.25 17.47Q24.06 18.77 24.89 20.30Q25.72 21.83 26.58 23.69Q27.45 25.55 28.30 27.89L28.30 27.89L27.61 27.89Q27.45 26.03 27.32 23.92Q27.20 21.80 27.11 19.87Q27.02 17.94 27.02 16.59L27.02 16.59L27.02 0.53L34.03 0.53L34.03 34L26.37 34L16.76 18.64Q15.70 16.91 14.80 15.28Q13.90 13.65 12.93 11.67Q11.95 9.70 10.60 6.98L10.60 6.98L11.48 6.98Q11.61 9.41 11.75 11.63Q11.88 13.85 11.96 15.66Q12.04 17.47 12.04 18.61L12.04 18.61L12.04 34ZM48.18 34.49L48.18 34.49Q44.40 34.49 41.64 32.87Q38.88 31.24 37.38 28.33Q35.89 25.42 35.89 21.56L35.89 21.56Q35.89 17.65 37.38 14.74Q38.88 11.83 41.64 10.20Q44.40 8.57 48.18 8.57L48.18 8.57Q51.97 8.57 54.72 10.20Q57.48 11.83 58.97 14.74Q60.46 17.65 60.46 21.56L60.46 21.56Q60.46 25.42 58.97 28.33Q57.48 31.24 54.72 32.87Q51.97 34.49 48.18 34.49ZM48.18 29.19L48.18 29.19Q49.97 29.19 51.19 28.19Q52.40 27.19 53.01 25.45Q53.61 23.71 53.61 21.53L53.61 21.53Q53.61 19.31 53.01 17.58Q52.40 15.85 51.19 14.86Q49.97 13.88 48.18 13.88L48.18 13.88Q46.38 13.88 45.18 14.86Q43.98 15.85 43.37 17.58Q42.76 19.31 42.76 21.53L42.76 21.53Q42.76 23.71 43.37 25.45Q43.98 27.19 45.18 28.19Q46.38 29.19 48.18 29.19ZM76.90 34L69.24 34L59.99 8.89L67.15 8.89L71.38 21.92Q72.14 24.36 72.71 26.86Q73.29 29.35 73.89 32.02L73.89 32.02L72.45 32.02Q73.04 29.35 73.60 26.86Q74.16 24.36 74.93 21.92L74.93 21.92L79.10 8.89L86.18 8.89L76.90 34ZM93.77 34.49L93.77 34.49Q91.39 34.49 89.49 33.65Q87.59 32.81 86.50 31.14Q85.41 29.46 85.41 26.97L85.41 26.97Q85.41 24.88 86.19 23.47Q86.96 22.05 88.30 21.20Q89.63 20.34 91.33 19.89Q93.03 19.45 94.89 19.27L94.89 19.27Q97.07 19.04 98.41 18.85Q99.74 18.66 100.36 18.24Q100.98 17.83 100.98 17.02L100.98 17.02L100.98 16.91Q100.98 15.83 100.53 15.09Q100.08 14.35 99.20 13.95Q98.33 13.56 97.05 13.56L97.05 13.56Q95.74 13.56 94.78 13.95Q93.81 14.35 93.21 15.00Q92.60 15.65 92.31 16.46L92.31 16.46L86.13 15.42Q86.78 13.25 88.29 11.72Q89.79 10.19 92.03 9.38Q94.26 8.57 97.05 8.57L97.05 8.57Q99.09 8.57 101.00 9.06Q102.91 9.54 104.43 10.55Q105.94 11.56 106.83 13.18Q107.72 14.80 107.72 17.09L107.72 17.09L107.72 34L101.34 34L101.34 30.52L101.11 30.52Q100.51 31.69 99.49 32.57Q98.48 33.46 97.06 33.98Q95.63 34.49 93.77 34.49ZM95.68 29.75L95.68 29.75Q97.27 29.75 98.47 29.13Q99.67 28.50 100.35 27.42Q101.02 26.34 101.02 25.02L101.02 25.02L101.02 22.30Q100.73 22.52 100.12 22.70Q99.52 22.88 98.78 23.02Q98.03 23.15 97.32 23.26Q96.60 23.38 96.04 23.44L96.04 23.44Q94.80 23.62 93.86 24.03Q92.91 24.43 92.40 25.09Q91.88 25.76 91.88 26.79L91.88 26.79Q91.88 27.76 92.37 28.42Q92.87 29.08 93.71 29.42Q94.55 29.75 95.68 29.75ZM125.25 34.45L125.25 34.45Q120.81 34.45 117.29 32.43Q113.78 30.41 111.74 26.57Q109.71 22.72 109.71 17.29L109.71 17.29Q109.71 11.83 111.76 7.98Q113.80 4.13 117.33 2.11Q120.85 0.08 125.25 0.08L125.25 0.08Q128.11 0.08 130.57 0.88Q133.03 1.68 134.94 3.21Q136.84 4.73 138.06 6.95Q139.27 9.16 139.65 11.97L139.65 11.97L132.71 11.97Q132.49 10.60 131.85 9.53Q131.21 8.46 130.25 7.71Q129.30 6.96 128.06 6.56Q126.83 6.17 125.39 6.17L125.39 6.17Q122.78 6.17 120.81 7.47Q118.83 8.78 117.75 11.26Q116.67 13.74 116.67 17.29L116.67 17.29Q116.67 20.91 117.78 23.38Q118.88 25.85 120.83 27.10Q122.78 28.36 125.37 28.36L125.37 28.36Q126.80 28.36 128.03 27.97Q129.25 27.58 130.23 26.82Q131.21 26.07 131.85 24.99Q132.49 23.92 132.73 22.57L132.73 22.57L139.67 22.57Q139.41 24.88 138.29 27.01Q137.18 29.15 135.34 30.83Q133.50 32.52 130.96 33.48Q128.42 34.45 125.25 34.45ZM148.25 19.47L148.25 19.47L148.25 34L141.51 34L141.51 0.53L148.12 0.53L148.12 15.16L147.58 15.16Q148.57 12.01 150.58 10.29Q152.59 8.57 155.78 8.57L155.78 8.57Q158.38 8.57 160.32 9.71Q162.27 10.84 163.33 12.97Q164.40 15.09 164.40 18.03L164.40 18.03L164.40 34L157.66 34L157.66 19.20Q157.66 16.86 156.46 15.54Q155.26 14.21 153.13 14.21L153.13 14.21Q151.71 14.21 150.60 14.83Q149.49 15.45 148.87 16.62Q148.25 17.78 148.25 19.47ZM174.17 34.49L174.17 34.49Q171.79 34.49 169.89 33.65Q167.99 32.81 166.90 31.14Q165.81 29.46 165.81 26.97L165.81 26.97Q165.81 24.88 166.59 23.47Q167.36 22.05 168.70 21.20Q170.04 20.34 171.73 19.89Q173.43 19.45 175.29 19.27L175.29 19.27Q177.47 19.04 178.81 18.85Q180.14 18.66 180.76 18.24Q181.38 17.83 181.38 17.02L181.38 17.02L181.38 16.91Q181.38 15.83 180.93 15.09Q180.48 14.35 179.60 13.95Q178.73 13.56 177.45 13.56L177.45 13.56Q176.15 13.56 175.18 13.95Q174.21 14.35 173.61 15.00Q173.00 15.65 172.71 16.46L172.71 16.46L166.53 15.42Q167.18 13.25 168.69 11.72Q170.19 10.19 172.43 9.38Q174.66 8.57 177.45 8.57L177.45 8.57Q179.49 8.57 181.40 9.06Q183.31 9.54 184.83 10.55Q186.34 11.56 187.23 13.18Q188.12 14.80 188.12 17.09L188.12 17.09L188.12 34L181.74 34L181.74 30.52L181.51 30.52Q180.91 31.69 179.90 32.57Q178.89 33.46 177.46 33.98Q176.03 34.49 174.17 34.49ZM176.08 29.75L176.08 29.75Q177.67 29.75 178.87 29.13Q180.08 28.50 180.75 27.42Q181.42 26.34 181.42 25.02L181.42 25.02L181.42 22.30Q181.13 22.52 180.53 22.70Q179.92 22.88 179.18 23.02Q178.44 23.15 177.72 23.26Q177.00 23.38 176.44 23.44L176.44 23.44Q175.20 23.62 174.26 24.03Q173.32 24.43 172.80 25.09Q172.28 25.76 172.28 26.79L172.28 26.79Q172.28 27.76 172.78 28.42Q173.27 29.08 174.11 29.42Q174.96 29.75 176.08 29.75ZM188.45 8.89L203.34 8.89L203.34 14.03L188.45 14.03L188.45 8.89ZM191.91 27.24L191.91 2.91L198.65 2.91L198.65 26.66Q198.65 27.85 199.18 28.42Q199.70 28.99 200.94 28.99L200.94 28.99Q201.32 28.99 202.02 28.89Q202.71 28.79 203.07 28.70L203.07 28.70L204.04 33.75Q202.92 34.09 201.80 34.22Q200.69 34.36 199.68 34.36L199.68 34.36Q195.91 34.36 193.91 32.52Q191.91 30.68 191.91 27.24L191.91 27.24Z"/></g>
        
      </svg>
    